<?xml version="1.0" encoding="iso-8859-1"?>
<!-- Generator: Adobe Illustrator 19.0.0, SVG Export Plug-In . SVG Version: 6.00 Build 0)  -->
<svg version="1.1" id="Layer_1" xmlns="http://www.w3.org/2000/svg" xmlns:xlink="http://www.w3.org/1999/xlink" x="0px" y="0px"
	 viewBox="0 0 512 512" style="enable-background:new 0 0 512 512;" xml:space="preserve">
<g>
	<g>
		<g>
			<path d="M248.535,218.445c4.123,4.123,10.806,4.123,14.929,0c0.507-0.507,51.191-51.191,52.277-52.277
				c11.884-11.884,11.884-31.153,0-43.037s-31.153-11.884-43.039,0l-16.704,16.704l-16.704-16.704
				c-11.884-11.884-31.153-11.884-43.037,0s-11.884,31.153,0,43.037C197.079,166.989,248.77,218.679,248.535,218.445z"/>
			<path d="M82.304,315.38h347.394c6.52,0,11.802-5.284,11.802-11.802V32.176c0-6.518-5.283-11.802-11.802-11.802H82.304
				c-6.52,0-11.802,5.284-11.802,11.802v271.402C70.502,310.096,75.784,315.38,82.304,315.38z M94.106,43.978h323.789v247.797
				H94.106V43.978z"/>
			<path d="M390.355,59.714H121.643c-6.518,0-11.802,5.284-11.802,11.802v192.721c0,6.518,5.284,11.802,11.802,11.802h268.714
				c6.52,0,11.802-5.284,11.802-11.802V71.517C402.158,64.999,396.875,59.714,390.355,59.714z M378.555,252.435h-0.002H133.445
				V83.319h245.11V252.435z"/>
			<path d="M507.307,385.112l-70.502-53.198c-2.049-1.545-4.545-2.381-7.11-2.381H82.304c-2.565,0-5.061,0.836-7.11,2.381
				L4.693,385.112C1.739,387.342,0,390.831,0,394.533v85.291c0,6.518,5.283,11.802,11.802,11.802h488.396
				c6.52,0,11.802-5.284,11.802-11.802v-85.291C512,390.831,510.263,387.342,507.307,385.112z M23.604,468.022v-67.609
				l62.652-47.276h339.485l62.652,47.276v67.609H23.604z"/>
			<path d="M273.496,404.1H66.997c-6.52,0-11.802,5.284-11.802,11.802c0,6.518,5.283,11.802,11.802,11.802h206.499
				c6.52,0,11.802-5.284,11.802-11.802C285.299,409.384,280.014,404.1,273.496,404.1z"/>
			<path d="M345.531,383.224c-18.02,0-32.68,14.658-32.68,32.678c0,18.018,14.66,32.678,32.68,32.678
				c18.018,0,32.678-14.658,32.678-32.678C378.209,397.882,363.549,383.224,345.531,383.224z M345.531,424.974
				c-5.004,0-9.075-4.069-9.075-9.073c0-5.004,4.071-9.074,9.075-9.074c5.003,0,9.074,4.071,9.074,9.074
				C354.604,420.903,350.533,424.974,345.531,424.974z"/>
			<path d="M415.71,383.224c-18.02,0-32.678,14.658-32.678,32.678c0,18.018,14.658,32.678,32.678,32.678
				c18.02,0,32.678-14.658,32.678-32.678C448.388,397.882,433.729,383.224,415.71,383.224z M415.708,424.975
				c-5.003,0-9.074-4.069-9.074-9.073c0-5.004,4.071-9.074,9.074-9.074c5.004,0,9.073,4.071,9.073,9.074
				C424.782,420.904,420.711,424.975,415.708,424.975z"/>
		</g>
	</g>
</g>
<g>
</g>
<g>
</g>
<g>
</g>
<g>
</g>
<g>
</g>
<g>
</g>
<g>
</g>
<g>
</g>
<g>
</g>
<g>
</g>
<g>
</g>
<g>
</g>
<g>
</g>
<g>
</g>
<g>
</g>
</svg>
